<?xml version="1.0" encoding="UTF-8" standalone="no"?>
<!DOCTYPE svg PUBLIC "-//W3C//DTD SVG 20010904//EN"
              "http://www.w3.org/TR/2001/REC-SVG-20010904/DTD/svg10.dtd">

<svg xmlns="http://www.w3.org/2000/svg"
     width="9.26667in" height="2.84444in"
     viewBox="0 0 834 256">
  <path id="Selection"
        fill="black" stroke="black" stroke-width="1"
        d="M 64.00,86.00
           C 64.97,79.78 69.56,69.41 71.95,63.00
             71.95,63.00 88.68,19.00 88.68,19.00
             91.87,10.37 93.19,0.20 104.00,0.00
             104.00,0.00 124.00,0.00 124.00,0.00
             126.38,0.00 129.71,-0.20 131.79,1.02
             134.87,2.84 137.03,8.76 138.42,12.00
             138.42,12.00 148.60,37.00 148.60,37.00
             148.60,37.00 183.42,122.00 183.42,122.00
             187.97,132.84 199.04,156.36 200.00,167.00
             193.68,165.16 173.02,152.41 167.00,148.14
             163.99,146.01 157.86,142.18 155.79,139.54
             155.79,139.54 145.00,114.00 145.00,114.00
             145.00,114.00 124.69,60.00 124.69,60.00
             121.89,52.13 116.92,35.35 113.00,29.00
             111.95,41.53 101.83,70.28 97.31,83.00
             96.23,86.04 92.61,98.50 89.73,99.13
             87.53,99.61 83.87,97.10 82.00,96.01
             82.00,96.01 64.00,86.00 64.00,86.00 Z
           M 685.00,58.00
           C 685.00,40.17 681.93,17.37 699.00,5.85
             708.89,-0.83 725.51,-0.94 737.00,0.58
             740.41,1.03 747.74,0.13 748.62,4.23
             748.94,5.71 748.04,10.31 747.75,12.00
             747.25,14.86 746.38,21.24 744.28,23.17
             741.61,25.63 737.22,24.30 734.00,24.09
             728.62,23.73 723.45,23.98 719.02,27.42
             709.47,34.80 711.00,47.23 711.00,58.00
             711.00,58.00 739.00,58.00 739.00,58.00
             739.00,58.00 739.00,77.00 739.00,77.00
             739.00,77.00 711.00,77.00 711.00,77.00
             711.00,77.00 711.00,202.00 711.00,202.00
             711.00,202.00 685.00,202.00 685.00,202.00
             685.00,202.00 685.00,77.00 685.00,77.00
             685.00,77.00 664.00,77.00 664.00,77.00
             664.00,77.00 664.00,58.00 664.00,58.00
             664.00,58.00 685.00,58.00 685.00,58.00 Z
           M 618.00,3.00
           C 618.00,3.00 644.00,3.00 644.00,3.00
             644.00,3.00 644.00,202.00 644.00,202.00
             644.00,202.00 618.00,202.00 618.00,202.00
             618.00,202.00 618.00,3.00 618.00,3.00 Z
           M 491.00,72.00
           C 495.54,62.40 506.98,57.14 517.00,55.26
             539.62,51.01 560.72,56.87 575.67,75.00
             581.37,81.90 585.75,93.32 587.87,102.00
             593.87,126.57 591.92,158.83 576.96,180.00
             562.51,200.45 532.70,211.12 509.00,201.55
             500.68,198.19 497.29,195.23 491.00,189.00
             491.00,189.00 491.00,256.00 491.00,256.00
             491.00,256.00 465.00,256.00 465.00,256.00
             465.00,256.00 465.00,58.00 465.00,58.00
             465.00,58.00 489.00,58.00 489.00,58.00
             489.00,58.00 491.00,72.00 491.00,72.00 Z
           M 780.00,73.00
           C 790.47,57.29 799.74,51.06 819.00,55.21
             823.50,56.18 831.48,58.30 833.22,63.09
             834.80,67.42 828.08,81.52 826.00,86.00
             819.28,84.47 811.64,80.09 805.00,81.53
             787.43,85.36 782.02,105.43 782.00,121.00
             782.00,121.00 782.00,202.00 782.00,202.00
             782.00,202.00 756.00,202.00 756.00,202.00
             756.00,202.00 756.00,58.00 756.00,58.00
             756.00,58.00 779.00,58.00 779.00,58.00
             779.00,58.00 780.00,73.00 780.00,73.00 Z
           M 260.00,73.00
           C 267.52,66.44 268.87,62.89 279.00,58.31
             284.72,55.73 288.80,55.03 295.00,55.00
             295.00,55.00 311.00,55.00 311.00,55.00
             324.58,55.16 337.08,63.14 342.00,76.00
             342.00,76.00 344.00,76.00 344.00,76.00
             349.31,66.11 361.83,57.19 373.00,55.16
             373.00,55.16 395.00,55.16 395.00,55.16
             408.64,55.16 419.52,61.77 425.73,74.00
             432.66,87.67 431.00,105.00 431.00,120.00
             431.00,120.00 431.00,202.00 431.00,202.00
             431.00,202.00 405.00,202.00 405.00,202.00
             405.00,202.00 405.00,109.00 405.00,109.00
             404.99,104.18 404.55,97.52 402.87,93.00
             399.41,83.70 389.06,76.35 379.00,77.19
             363.88,78.44 351.77,90.53 348.51,105.00
             346.26,115.00 347.00,130.37 347.00,141.00
             347.00,141.00 347.00,202.00 347.00,202.00
             347.00,202.00 321.00,202.00 321.00,202.00
             321.00,202.00 321.00,111.00 321.00,111.00
             320.98,98.02 318.49,84.39 305.00,78.93
             301.89,77.67 298.36,76.91 295.00,77.19
             280.10,78.42 267.86,90.82 264.66,105.00
             262.11,116.33 263.00,130.23 263.00,142.00
             263.00,142.00 263.00,202.00 263.00,202.00
             263.00,202.00 237.00,202.00 237.00,202.00
             237.00,202.00 237.00,58.00 237.00,58.00
             237.00,58.00 260.00,58.00 260.00,58.00
             260.00,58.00 260.00,73.00 260.00,73.00 Z
           M 525.00,75.29
           C 490.21,81.07 484.30,123.49 491.63,152.00
             496.06,169.22 509.51,185.16 529.00,182.71
             554.25,179.54 563.96,155.70 564.00,133.00
             564.00,133.00 564.00,122.00 564.00,122.00
             563.93,116.15 562.71,109.59 560.98,104.00
             555.69,86.94 544.31,73.52 525.00,75.29 Z
           M 56.00,94.00
           C 56.00,94.00 92.00,114.40 92.00,114.40
             92.00,114.40 159.00,154.80 159.00,154.80
             159.00,154.80 183.00,169.20 183.00,169.20
             185.26,170.60 190.33,173.28 188.83,176.64
             187.97,178.56 181.97,181.98 180.00,183.19
             180.00,183.19 156.00,197.80 156.00,197.80
             156.00,197.80 91.00,237.01 91.00,237.01
             83.28,241.54 63.38,253.89 56.00,256.00
             56.00,256.00 56.00,94.00 56.00,94.00 Z
           M 42.00,141.00
           C 47.16,148.00 44.01,168.29 44.00,177.00
             44.00,177.00 44.00,220.00 44.00,220.00
             43.98,235.16 38.11,241.35 35.00,255.00
             35.00,255.00 0.00,255.00 0.00,255.00
             0.00,255.00 16.58,207.00 16.58,207.00
             16.58,207.00 32.58,165.00 32.58,165.00
             32.58,165.00 42.00,141.00 42.00,141.00 Z
           M 237.00,255.00
           C 237.00,255.00 212.00,255.00 212.00,255.00
             208.48,254.95 202.40,254.54 199.64,252.18
             197.47,250.34 195.49,244.76 194.23,242.00
             194.23,242.00 184.19,216.00 184.19,216.00
             182.85,212.48 177.61,200.38 178.67,197.33
             179.54,194.80 183.76,192.87 186.00,191.58
             186.00,191.58 207.00,180.00 207.00,180.00
             207.00,180.00 224.42,222.00 224.42,222.00
             224.42,222.00 237.00,255.00 237.00,255.00 Z" />
</svg>
