<?xml version="1.0" encoding="UTF-8" standalone="no"?>
<!DOCTYPE svg PUBLIC "-//W3C//DTD SVG 20010904//EN"
              "http://www.w3.org/TR/2001/REC-SVG-20010904/DTD/svg10.dtd">

<svg xmlns="http://www.w3.org/2000/svg"
viewBox="0 0 173 187">
  <path d="M 47.00,62.00 C 47.00,62.00 64.95,15.00 64.95,15.00 70.25,0.84 69.60,0.06 78.00,0.00 78.00,0.00 91.00,0.00 91.00,0.00 92.69,0.03 94.87,-0.07 96.30,0.99 97.85,2.14 99.36,6.16 100.15,8.00 100.15,8.00 107.85,27.00 107.85,27.00 107.85,27.00 132.42,87.00 132.42,87.00 135.50,94.33 144.84,115.57 146.00,122.00 146.00,122.00 125.00,109.60 125.00,109.60 125.00,109.60 113.84,101.68 113.84,101.68 113.84,101.68 104.81,79.00 104.81,79.00 104.81,79.00 91.69,44.00 91.69,44.00 91.69,44.00 83.00,19.00 83.00,19.00 83.00,19.00 76.98,42.00 76.98,42.00 76.98,42.00 66.00,73.00 66.00,73.00 66.00,73.00 47.00,62.00 47.00,62.00 Z M 41.00,69.00 C 41.00,69.00 69.00,85.40 69.00,85.40 69.00,85.40 111.00,110.81 111.00,110.81 111.00,110.81 138.00,127.00 138.00,127.00 138.00,127.00 138.00,129.00 138.00,129.00 138.00,129.00 72.00,169.20 72.00,169.20 72.00,169.20 41.00,187.00 41.00,187.00 41.00,187.00 41.00,69.00 41.00,69.00 Z M 31.00,103.00 C 32.82,107.60 32.00,121.34 32.00,127.00 32.00,127.00 32.00,159.00 32.00,159.00 31.98,171.17 27.55,175.11 25.00,186.00 25.00,186.00 0.00,186.00 0.00,186.00 0.00,186.00 10.80,156.00 10.80,156.00 10.80,156.00 31.00,103.00 31.00,103.00 Z M 130.00,144.00 C 130.00,144.00 151.00,132.00 151.00,132.00 151.00,132.00 173.00,186.00 173.00,186.00 173.00,186.00 153.00,186.00 153.00,186.00 153.00,186.00 145.81,184.40 145.81,184.40 145.81,184.40 140.32,172.00 140.32,172.00 140.32,172.00 130.00,144.00 130.00,144.00 Z"></path>
</svg>
