<?xml version="1.0" encoding="UTF-8" standalone="no"?>
<!DOCTYPE svg PUBLIC "-//W3C//DTD SVG 20010904//EN"
              "http://www.w3.org/TR/2001/REC-SVG-20010904/DTD/svg10.dtd">

<svg xmlns="http://www.w3.org/2000/svg"
     width="19.4333in" height="20.7667in"
     viewBox="0 0 1749 1869">
  <path id="Selection"
        fill="black" stroke="black" stroke-width="1"
        d="M 717.70,0.99
           C 717.70,0.99 984.30,0.99 984.30,0.99
             984.30,0.99 1425.00,1076.00 1425.00,1076.00
             1417.54,1075.37 1137.65,1003.95 1135.50,1002.15
             1133.09,1000.13 845.00,200.00 845.00,200.00
             845.00,200.00 627.06,871.38 624.58,872.34
             622.24,873.25 404.00,817.00 404.00,817.00
             404.00,817.00 717.70,0.99 717.70,0.99 Z
           M 1608.00,1207.00
           C 1608.00,1207.00 681.00,1435.37 681.00,1435.37
             681.00,1435.37 267.00,1537.00 267.00,1537.00
             267.00,1537.00 267.00,866.00 267.00,866.00M 1522.00,1312.00
           C 1522.00,1312.00 1749.00,1869.00 1749.00,1869.00
             1749.00,1869.00 1474.00,1869.00 1474.00,1869.00
             1471.96,1869.00 1468.37,1869.26 1466.70,1868.01
             1465.01,1866.74 1276.81,1379.77 1276.00,1372.00
             1276.00,1372.00 1522.00,1312.00 1522.00,1312.00 Z
           M 186.00,1589.00
           C 186.27,1611.64 205.54,1629.50 228.00,1628.99
             228.00,1628.99 362.00,1597.00 362.00,1597.00
             362.00,1597.00 264.00,1869.00 264.00,1869.00
             264.00,1869.00 0.00,1869.00 0.00,1869.00
             0.00,1869.00 185.00,1385.00 185.00,1385.00
             186.74,1389.38 186.00,1589.00 186.00,1589.00 Z" />
</svg>
