<svg version="1.1" viewBox="0.0 0.0 811.8110236220473 361.4435695538058" fill="none" stroke="none" stroke-linecap="square" stroke-miterlimit="10" xmlns:xlink="http://www.w3.org/1999/xlink" xmlns="http://www.w3.org/2000/svg"><clipPath id="p.0"><path d="m0 0l811.81104 0l0 361.44357l-811.81104 0l0 -361.44357z" clip-rule="nonzero"/></clipPath><g clip-path="url(#p.0)"><path fill="#000000" fill-opacity="0.0" d="m0 0l811.81104 0l0 361.44357l-811.81104 0z" fill-rule="evenodd"/><path fill="#000000" fill-opacity="0.0" d="m12.503696 10.821523l795.2756 0l0 342.51968l-795.2756 0z" fill-rule="evenodd"/><path fill="#000000" d="m21.128696 270.70154l71.828125 -187.0625l26.671875 0l76.5625 187.0625l-28.203125 0l-21.8125 -56.656265l-78.21875 0l-20.546871 56.656265l-26.28125 0zm53.968746 -76.812515l63.421875 0l-19.53125 -51.8125q-8.921875 -23.609367 -13.265625 -38.781242q-3.578125 17.984375 -10.078125 35.718742l-20.546875 54.875zm137.92882 76.812515l0 -135.51564l20.546875 0l0 19.015625q6.390625 -9.953125 16.96875 -16.015625q10.593765 -6.0625 24.125015 -6.0625q15.0625 0 24.6875 6.25q9.640625 6.25 13.59375 17.484375q16.078125 -23.734375 41.84375 -23.734375q20.171875 0 31.015625 11.171875q10.84375 11.15625 10.84375 34.390625l0 93.01564l-22.84375 0l0 -85.35939q0 -13.78125 -2.234375 -19.84375q-2.234375 -6.0625 -8.109375 -9.765625q-5.859375 -3.703125 -13.765625 -3.703125q-14.296875 0 -23.734375 9.515625q-9.4375 9.5 -9.4375 30.421875l0 78.73439l-22.96875 0l0 -88.04689q0 -15.3125 -5.625 -22.96875q-5.609375 -7.65625 -18.375 -7.65625q-9.6875 0 -17.92189 5.109375q-8.234375 5.09375 -11.9375 14.921875q-3.703125 9.828125 -3.703125 28.328125l0 70.312515l-22.96875 0zm217.68837 51.9375l0 -187.45314l20.9375 0l0 17.609375q7.390625 -10.328125 16.703125 -15.5q9.328125 -5.171875 22.59375 -5.171875q17.359375 0 30.62503 8.9375q13.265625 8.921875 20.03125 25.203125q6.765625 16.265625 6.765625 35.65625q0 20.796875 -7.46875 37.453125q-7.453125 16.656265 -21.6875 25.531265q-14.2344055 8.859375 -29.921906 8.859375q-11.484375 0 -20.609375 -4.84375q-9.125 -4.859375 -15.0 -12.25l0 65.96875l-22.96875 0zm20.8125 -118.92189q0 26.15625 10.578125 38.65625q10.59375 12.5 25.65625 12.5q15.3125 0 26.21878 -12.9375q10.90625 -12.953125 10.90625 -40.140625q0 -25.90625 -10.65625 -38.78125q-10.6406555 -12.890625 -25.453156 -12.890625q-14.671875 0 -25.96875 13.71875q-11.28125 13.703125 -11.28125 39.875zm124.02579 66.98439l0 -187.0625l22.96875 0l0 187.0625l-22.96875 0zm64.058716 0l0 -117.656265l-20.296875 0l0 -17.859375l20.296875 0l0 -14.421867q0 -13.640625 2.421875 -20.28125q3.3125 -8.9375 11.671875 -14.484375q8.359375 -5.546875 23.421875 -5.546875q9.6875 0 21.4375 2.296875l-3.453125 20.03125q-7.140625 -1.28125 -13.53125 -1.28125q-10.453125 0 -14.796875 4.46875q-4.34375 4.46875 -4.34375 16.71875l0 12.499992l26.421875 0l0 17.859375l-26.421875 0l0 117.656265l-22.828125 0zm66.85535 0l0 -135.51564l20.671875 0l0 20.546875q7.90625 -14.421875 14.609375 -19.015625q6.703125 -4.59375 14.734375 -4.59375q11.625 0 23.609375 7.40625l-7.90625 21.3125q-8.421875 -4.984375 -16.84375 -4.984375q-7.53125 0 -13.53125 4.53125q-6.0 4.53125 -8.546875 12.5625q-3.828125 12.25 -3.828125 26.796875l0 70.95314l-22.96875 0z" fill-rule="nonzero"/><path fill="#000000" d="m59.404198 145.13649l110.740166 67.291336l-110.740166 67.29132z" fill-rule="evenodd"/><path stroke="#ffffff" stroke-width="8.0" stroke-linejoin="round" stroke-linecap="butt" d="m59.404198 145.13649l110.740166 67.291336l-110.740166 67.29132z" fill-rule="evenodd"/></g></svg>