<?xml version="1.0" encoding="UTF-8" standalone="no"?>
<!DOCTYPE svg PUBLIC "-//W3C//DTD SVG 20010904//EN"
              "http://www.w3.org/TR/2001/REC-SVG-20010904/DTD/svg10.dtd">

<svg xmlns="http://www.w3.org/2000/svg"
     width="9.01111in" height="2.88889in"
     viewBox="0 0 811 260">
  <path id="Selection"
        fill="#000000" stroke="black" stroke-width="1"
        d="M 638.00,47.00
           C 638.01,41.95 638.41,36.89 639.76,32.00
             640.69,28.64 642.06,25.86 644.05,23.00
             651.62,12.16 664.66,9.95 677.00,10.00
             677.00,10.00 698.00,12.00 698.00,12.00
             698.00,12.00 695.59,26.00 695.59,26.00
             695.26,27.84 694.98,30.77 693.41,32.03
             691.11,33.74 685.80,32.27 683.00,32.03
             677.33,31.73 670.34,32.92 666.27,37.21
             660.48,43.33 662.00,56.92 662.00,65.00
             662.00,65.00 688.00,65.00 688.00,65.00
             688.00,65.00 688.00,83.00 688.00,83.00
             688.00,83.00 662.00,83.00 662.00,83.00
             662.00,83.00 662.00,201.00 662.00,201.00
             662.00,201.00 638.00,201.00 638.00,201.00
             638.00,201.00 638.00,83.00 638.00,83.00
             638.00,83.00 618.00,83.00 618.00,83.00
             618.00,83.00 618.00,65.00 618.00,65.00
             618.00,65.00 638.00,65.00 638.00,65.00
             638.00,65.00 638.00,47.00 638.00,47.00 Z
           M 61.62,92.82
           C 61.62,92.82 67.60,76.00 67.60,76.00
             67.60,76.00 85.32,30.00 85.32,30.00
             85.32,30.00 92.51,14.02 92.51,14.02
             92.51,14.02 100.00,13.00 100.00,13.00
             100.00,13.00 120.00,13.00 120.00,13.00
             120.00,13.00 130.60,40.00 130.60,40.00
             130.60,40.00 152.60,94.00 152.60,94.00
             152.60,94.00 163.00,121.00 163.00,121.00
             156.94,119.24 148.15,116.37 142.00,117.00
             142.00,117.00 138.00,116.00 138.00,116.00
             138.00,116.00 134.00,115.00 134.00,115.00
             134.00,115.00 113.69,62.00 113.69,62.00
             113.69,62.00 105.00,37.00 105.00,37.00
             100.31,60.33 91.64,78.96 84.00,101.00
             84.00,101.00 75.00,100.00 75.00,100.00
             75.00,100.00 71.00,99.00 71.00,99.00
             71.00,99.00 67.00,98.00 67.00,98.00
             67.00,98.00 63.00,97.00 63.00,97.00
             63.00,97.00 61.62,92.82 61.62,92.82 Z
           M 598.00,13.00
           C 598.00,13.00 598.00,201.00 598.00,201.00
             598.00,201.00 574.00,201.00 574.00,201.00
             574.00,201.00 574.00,13.00 574.00,13.00
             574.00,13.00 598.00,13.00 598.00,13.00 Z
           M 265.00,62.15
           C 265.00,62.15 279.00,62.15 279.00,62.15
             285.62,62.08 292.26,63.84 298.00,67.20
             306.83,72.36 307.59,76.46 313.00,84.00
             319.16,72.53 332.17,64.15 345.00,62.15
             345.00,62.15 358.00,62.15 358.00,62.15
             372.04,62.17 384.53,68.04 391.01,81.00
             397.33,93.64 396.00,110.22 396.00,124.00
             396.00,124.00 396.00,201.00 396.00,201.00
             396.00,201.00 372.00,201.00 372.00,201.00
             372.00,201.00 372.00,112.00 372.00,112.00
             371.99,104.43 371.16,95.93 365.79,90.09
             352.46,75.60 328.35,84.11 320.38,100.00
             315.03,110.66 316.00,125.33 316.00,137.00
             316.00,137.00 316.00,201.00 316.00,201.00
             316.00,201.00 292.00,201.00 292.00,201.00
             292.00,201.00 292.00,112.00 292.00,112.00
             291.99,104.70 290.79,95.73 285.78,90.04
             273.59,76.21 249.50,83.08 240.82,100.00
             235.17,111.02 236.00,125.90 236.00,138.00
             236.00,138.00 236.00,201.00 236.00,201.00
             236.00,201.00 212.00,201.00 212.00,201.00
             212.00,201.00 212.00,65.00 212.00,65.00
             212.00,65.00 233.00,65.00 233.00,65.00
             233.00,65.00 234.00,82.00 234.00,82.00
             239.77,71.26 253.08,63.84 265.00,62.15 Z
           M 517.00,67.90
           C 522.41,70.87 528.68,76.17 532.48,81.00
             551.75,105.45 552.57,152.03 535.91,178.00
             522.41,199.05 492.60,210.86 469.00,200.10
             462.23,197.02 458.04,193.32 453.00,188.00
             453.00,188.00 453.00,253.00 453.00,253.00
             453.00,253.00 429.00,253.00 429.00,253.00
             429.00,253.00 429.00,65.00 429.00,65.00
             429.00,65.00 451.00,65.00 451.00,65.00
             451.00,65.00 452.00,81.00 452.00,81.00
             462.36,59.08 498.12,57.56 517.00,67.90 Z
           M 764.00,62.67
           C 767.55,63.43 777.18,66.39 778.19,70.21
             778.70,72.11 777.34,75.19 776.68,77.00
             776.68,77.00 771.00,91.00 771.00,91.00
             764.79,89.24 758.70,85.53 752.00,86.50
             733.97,89.11 729.02,109.67 729.00,125.00
             729.00,125.00 729.00,201.00 729.00,201.00
             729.00,201.00 705.00,201.00 705.00,201.00
             705.00,201.00 705.00,65.00 705.00,65.00
             705.00,65.00 726.00,65.00 726.00,65.00
             726.00,65.00 727.00,83.00 727.00,83.00
             734.25,66.77 746.14,58.85 764.00,62.67 Z
           M 453.72,156.00
           C 458.19,171.09 468.20,183.28 485.00,183.96
             500.28,184.58 512.89,174.89 518.55,161.00
             520.64,155.85 521.37,151.42 522.25,146.00
             525.85,123.76 521.53,87.62 495.00,81.43
             491.35,80.69 485.74,80.91 482.00,81.43
             451.61,88.15 446.28,130.91 453.72,156.00 Z
           M 59.00,102.00
           C 59.00,102.00 63.00,103.00 63.00,103.00
             63.00,103.00 67.00,104.00 67.00,104.00
             67.00,104.00 71.00,105.00 71.00,105.00
             71.00,105.00 75.00,106.00 75.00,106.00
             75.00,106.00 79.00,107.00 79.00,107.00
             79.00,107.00 83.00,108.00 83.00,108.00
             83.00,108.00 87.00,109.00 87.00,109.00
             88.27,111.94 93.12,112.15 96.00,112.87
             103.01,114.63 115.25,118.69 122.00,118.00
             122.00,118.00 126.00,119.00 126.00,119.00
             126.00,119.00 130.00,120.00 130.00,120.00
             130.00,120.00 134.00,121.00 134.00,121.00
             134.00,121.00 138.00,122.00 138.00,122.00
             138.00,122.00 142.00,123.00 142.00,123.00
             142.00,123.00 146.00,124.00 146.00,124.00
             147.01,126.00 147.93,125.32 150.00,125.00
             151.12,127.59 154.40,127.72 157.00,128.37
             163.21,129.93 170.67,132.65 177.00,132.00
             177.00,132.00 179.00,136.00 179.00,136.00
             179.00,136.00 175.00,137.00 175.00,137.00
             175.00,137.00 171.00,138.00 171.00,138.00
             171.00,138.00 167.00,139.00 167.00,139.00
             167.00,139.00 163.00,140.00 163.00,140.00
             163.00,140.00 159.00,141.00 159.00,141.00
             159.00,141.00 155.00,142.00 155.00,142.00
             152.79,141.57 151.96,140.80 151.00,143.00
             144.21,141.92 132.96,145.89 126.00,147.63
             121.60,148.73 117.58,149.13 114.00,152.00
             114.00,152.00 110.00,153.00 110.00,153.00
             110.00,153.00 106.00,154.00 106.00,154.00
             106.00,154.00 102.00,155.00 102.00,155.00
             102.00,155.00 98.00,156.00 98.00,156.00
             98.00,156.00 94.00,157.00 94.00,157.00
             91.79,156.57 90.96,155.80 90.00,158.00
             83.21,156.92 71.96,160.89 65.00,162.63
             60.60,163.73 56.58,164.13 53.00,167.00
             53.00,167.00 48.00,168.00 48.00,168.00
             48.00,168.00 48.00,101.00 48.00,101.00
             48.00,101.00 59.00,102.00 59.00,102.00 Z
           M 179.60,160.00
           C 179.60,160.00 196.00,201.00 196.00,201.00
             196.00,201.00 175.00,201.00 175.00,201.00
             175.00,201.00 166.70,199.40 166.70,199.40
             166.70,199.40 160.81,186.00 160.81,186.00
             160.81,186.00 148.00,151.00 148.00,151.00
             148.00,151.00 159.00,147.00 159.00,147.00
             159.00,147.00 163.00,146.00 163.00,146.00
             163.00,146.00 167.00,145.00 167.00,145.00
             167.00,145.00 171.00,144.00 171.00,144.00
             175.98,147.47 177.39,154.57 179.60,160.00 Z
           M 39.00,168.00
           C 39.08,171.95 39.72,177.36 45.00,175.00
             45.00,175.00 49.00,174.00 49.00,174.00
             49.00,174.00 53.00,173.00 53.00,173.00
             53.00,173.00 57.00,174.00 57.00,174.00
             57.00,174.00 48.00,201.00 48.00,201.00
             48.00,201.00 20.00,201.00 20.00,201.00
             20.00,201.00 38.00,152.00 38.00,152.00
             39.74,156.40 38.92,163.16 39.00,168.00 Z" />
</svg>
